<svg id="Layer_1" data-name="Layer 1" xmlns="http://www.w3.org/2000/svg" viewBox="0 0 122.41 51.28"><defs><style>.cls-1{fill:#e1d821;}.cls-2{fill:#d4145a;}.cls-3{fill:#f7931e;}.cls-4{fill:#d9e021;}.cls-5{fill:#39b54a;}.cls-6{fill:#0071bc;}.cls-7{fill:#3457b4;}.cls-8{fill:#f15a24;}.cls-9{fill:#009245;}.cls-10{fill:#9e005d;}.cls-11{fill:#1a1a1a;}.cls-12{font-size:49.66px;stroke:#000;stroke-miterlimit:10;stroke-width:3px;font-family:RobinsonOblique, Robinson Oblique;letter-spacing:0.02em;}</style></defs><title>Tiny FTC Logo</title><path class="cls-1" d="M60,22.16A29.54,29.54,0,0,0,56.6,9.74l-6.2,4.07a14.88,14.88,0,0,1,2.46,8.35Z" transform="translate(-3.01 1.67)"/><path class="cls-2" d="M33.55,7.79l1.56,5.94a8.6,8.6,0,0,1,5,.19l2-5.82a14.78,14.78,0,0,0-8.55-.3Z" transform="translate(-3.01 1.67)"/><path class="cls-3" d="M42.76,8.34l-2.24,5.72a8.6,8.6,0,0,1,4,3.12l5-3.55a14.78,14.78,0,0,0-6.73-5.28Z" transform="translate(-3.01 1.67)"/><path class="cls-4" d="M49.91,14.06l-5.13,3.37a8.6,8.6,0,0,1,1.42,4.83h6.14a14.78,14.78,0,0,0-2.43-8.2Z" transform="translate(-3.01 1.67)"/><path class="cls-5" d="M52.3,23l-6.13-.3a8.6,8.6,0,0,1-1.69,4.74l5,3.62A14.78,14.78,0,0,0,52.3,23Z" transform="translate(-3.01 1.67)"/><path class="cls-6" d="M49.13,31.57l-4.83-3.8a8.6,8.6,0,0,1-4.13,2.88l1.95,5.82a14.78,14.78,0,0,0,7-4.91Z" transform="translate(-3.01 1.67)"/><path class="cls-7" d="M50.35,40a23.27,23.27,0,0,0,4.38-4.06l-5.15-4a15,15,0,0,1-7.21,5L44.42,43A23.25,23.25,0,0,0,50.35,40Z" transform="translate(-3.01 1.67)"/><path class="cls-2" d="M41.4,36.62,39.8,30.69a8.6,8.6,0,0,1-5-.16l-1.92,5.83a14.78,14.78,0,0,0,8.55.26Z" transform="translate(-3.01 1.67)"/><path class="cls-3" d="M32.18,36.05l2.15-5.75a8.6,8.6,0,0,1-4-3.05l-5,3.63a14.78,14.78,0,0,0,6.81,5.18Z" transform="translate(-3.01 1.67)"/><path class="cls-8" d="M23.52,40.07a24.88,24.88,0,0,0,5.79,3.23l2.54-6.81a14.56,14.56,0,0,1-6.77-5.17l-6,4.43A24.89,24.89,0,0,0,23.52,40.07Z" transform="translate(-3.01 1.67)"/><path class="cls-4" d="M25,30.33l5.11-3.4a8.6,8.6,0,0,1-1.45-4.82l-6.14,0A14.78,14.78,0,0,0,25,30.33Z" transform="translate(-3.01 1.67)"/><path class="cls-5" d="M22.55,21.54l6.14.23A8.6,8.6,0,0,1,30.33,17l-5-3.56a14.78,14.78,0,0,0-2.77,8.09Z" transform="translate(-3.01 1.67)"/><path class="cls-9" d="M19.45,9.3a25.61,25.61,0,0,0-4.09,11.84L22,21.4a14.88,14.88,0,0,1,2.84-8.23Z" transform="translate(-3.01 1.67)"/><path class="cls-6" d="M25.74,12.83l4.8,3.83a8.6,8.6,0,0,1,4.14-2.86L32.77,8a14.78,14.78,0,0,0-7,4.87Z" transform="translate(-3.01 1.67)"/><path class="cls-10" d="M38-.09a31.31,31.31,0,0,0-6.31.47l1.83,6.94a15,15,0,0,1,8.75.32L44.53.78A31.31,31.31,0,0,0,38-.09Z" transform="translate(-3.01 1.67)"/><line x1="34.67" y1="23.95" x2="44.13" y2="12.28"/><rect class="cls-11" x="34.9" y="16.21" width="15.02" height="0.47" transform="translate(-0.08 40.71) rotate(-50.98)"/><line x1="33.06" y1="49.9" x2="34.67" y2="23.95"/><rect class="cls-11" x="23.88" y="35.01" width="26" height="0.47" transform="translate(-3.61 71.53) rotate(-86.43)"/><line x1="0.32" y1="33.54" x2="34.67" y2="23.95"/><rect class="cls-11" x="2.67" y="26.84" width="35.67" height="0.47" transform="translate(-9.54 8.19) rotate(-15.6)"/><line x1="52.47" y1="30.34" x2="34.67" y2="23.95"/><rect class="cls-11" x="46.35" y="16.02" width="0.47" height="18.91" transform="translate(3.86 62.38) rotate(-70.25)"/><line x1="34.76" y1="24.07" x2="22.16" y2="4.84"/><rect class="cls-11" x="31.23" y="1.29" width="0.47" height="22.98" transform="translate(-4.87 21.02) rotate(-33.24)"/><circle cx="34.45" cy="23.93" r="2.7"/><path class="cls-11" d="M37.47,25.18h0a2.93,2.93,0,0,1,0-5.86h0a2.93,2.93,0,0,1,0,5.86Zm0-5.39a2.46,2.46,0,0,0,0,4.92h0a2.46,2.46,0,0,0,0-4.92Z" transform="translate(-3.01 1.67)"/><circle cx="44.13" cy="12.28" r="1.59"/><path class="cls-11" d="M47.14,12.44h0a1.83,1.83,0,0,1,0-3.66h0a1.83,1.83,0,0,1,0,3.66Zm0-3.19a1.36,1.36,0,0,0,0,2.71h0a1.36,1.36,0,0,0,0-2.71Z" transform="translate(-3.01 1.67)"/><circle cx="52.58" cy="30.69" r="1.59"/><path class="cls-11" d="M55.59,30.84h0a1.83,1.83,0,0,1,0-3.66h0a1.83,1.83,0,0,1,0,3.66Zm0-3.19a1.36,1.36,0,0,0,0,2.71h0a1.36,1.36,0,0,0,0-2.71Z" transform="translate(-3.01 1.67)"/><circle cx="33.06" cy="49.45" r="1.59"/><path class="cls-11" d="M36.07,49.6h0a1.83,1.83,0,0,1,0-3.66h0a1.83,1.83,0,0,1,0,3.66Zm0-3.19a1.36,1.36,0,0,0,0,2.71h0a1.36,1.36,0,0,0,0-2.71Z" transform="translate(-3.01 1.67)"/><circle cx="1.83" cy="33" r="1.59"/><path class="cls-11" d="M4.84,33.15h0a1.83,1.83,0,0,1,0-3.66h0a1.83,1.83,0,0,1,0,3.66Zm0-3.19a1.36,1.36,0,0,0,0,2.71h0a1.36,1.36,0,0,0,0-2.71Z" transform="translate(-3.01 1.67)"/><circle cx="22.63" cy="5.56" r="1.59"/><path class="cls-11" d="M25.64,5.71h0a1.83,1.83,0,0,1,0-3.66h0a1.83,1.83,0,0,1,0,3.66Zm0-3.19a1.36,1.36,0,0,0,0,2.71h0a1.36,1.36,0,0,0,0-2.71Z" transform="translate(-3.01 1.67)"/><text class="cls-12" transform="matrix(1.31, 0, 0, 1, 57.02, 43.71)">FTC</text></svg>